<svg xmlns="http://www.w3.org/2000/svg" width="10.015" height="11" viewBox="0 0 10.015 11">
  <g id="Union_16" data-name="Union 16" transform="translate(0.5 0.5)" fill="rgba(0,0,0,0)" stroke-linecap="round" stroke-linejoin="round">
    <path d="M 4.823548316955566 10.17666912078857 L -0.1767616420984268 5.177178859710693 L -1.640624986976036e-06 5.000389099121094 L -0.176781639456749 4.823608875274658 L 4.823528289794922 -0.17678102850914 L 5.177088260650635 0.1767789721488953 L 0.6035515069961548 4.750389099121094 L 9.015138626098633 4.750389099121094 L 9.015138626098633 5.250389099121094 L 0.6036183834075928 5.250389099121094 L 5.17706823348999 9.823088645935059 L 4.823548316955566 10.17666912078857 Z" stroke="none"/>
    <path d="M 5.000308513641357 9.999878883361816 L -1.640624986976036e-06 5.000389099121094 L 5.000308513641357 9.999878883361816 M 9.015138626098633 5.000389099121094 L -1.640624986976036e-06 5.000389099121094 L 9.015138626098633 5.000389099121094 M -1.640624986976036e-06 5.000389099121094 L 5.000308513641357 -1.0351562877986e-06 L -1.640624986976036e-06 5.000389099121094 M 5.00030517578125 10.4998779296875 C 4.872344017028809 10.4998779296875 4.744423389434814 10.45108413696289 4.646788597106934 10.35345935821533 L -0.3517096936702728 5.355780601501465 C -0.3523198366165161 5.355176448822021 -0.3529438376426697 5.354556560516357 -0.3535516262054443 5.353949069976807 C -0.4016634821891785 5.305837154388428 -0.4379255771636963 5.25034761428833 -0.4623289108276367 5.191133499145508 C -0.4860709607601166 5.133656024932861 -0.4994007647037506 5.070809841156006 -0.4999813139438629 5.004894733428955 L -0.4999814331531525 5.004878044128418 C -0.4999870955944061 5.004234313964844 -0.4999911189079285 5.003616333007812 -0.4999944567680359 5.00297212600708 C -0.4999988079071045 5.002119064331055 -0.5000016093254089 5.001244068145752 -0.5000016093254089 5.000391483306885 C -0.5000016689300537 5.000389099121094 -0.5000016689300537 5.000389099121094 -0.5000016689300537 5.000389099121094 C -0.500001847743988 4.999867916107178 -0.5000007748603821 4.999371528625488 -0.4999991953372955 4.99885368347168 C -0.4999976754188538 4.998347759246826 -0.4999952614307404 4.997829437255859 -0.499992161989212 4.99732494354248 C -0.4999891817569733 4.996829032897949 -0.499985545873642 4.99634313583374 -0.499981015920639 4.995846271514893 C -0.4999766945838928 4.995359420776367 -0.4999715685844421 4.994875907897949 -0.4999657571315765 4.994381904602051 C -0.499209076166153 4.930127620697021 -0.4863389730453491 4.868803024291992 -0.4635211229324341 4.812557220458984 C -0.4391146302223206 4.752251625061035 -0.4024600684642792 4.695737361907959 -0.3535616397857666 4.646839141845703 L 4.646748542785645 -0.3535510301589966 C 4.842008590698242 -0.5488110184669495 5.15859842300415 -0.5488210320472717 5.353858470916748 -0.3535610437393188 C 5.549118518829346 -0.1583010405302048 5.549128532409668 0.1582889705896378 5.35386848449707 0.3535489737987518 L 1.207094669342041 4.500389099121094 L 9.015138626098633 4.500389099121094 C 9.291277885437012 4.500389099121094 9.515138626098633 4.724248886108398 9.515138626098633 5.000389099121094 C 9.515138626098633 5.276528835296631 9.291277885437012 5.500389099121094 9.015138626098633 5.500389099121094 L 1.20723831653595 5.500389099121094 L 5.353828430175781 9.646299362182617 C 5.549108505249023 9.84153938293457 5.54913854598999 10.15812873840332 5.353888511657715 10.3533992767334 C 5.256268501281738 10.45103931427002 5.12826681137085 10.4998779296875 5.00030517578125 10.4998779296875 Z" stroke="none" fill="#fff"/>
  </g>
</svg>
